<?xml version="1.0" encoding="UTF-8"?>
<svg xmlns="http://www.w3.org/2000/svg" viewBox="0 0 1440 720" font-family="-apple-system, 'Segoe UI', Helvetica, Arial, sans-serif">
  <defs>
    <linearGradient id="bg" x1="0" y1="0" x2="0" y2="1">
      <stop offset="0" stop-color="#fafbfc"/>
      <stop offset="1" stop-color="#eef1f5"/>
    </linearGradient>
    <filter id="shadow" x="-20%" y="-20%" width="140%" height="140%">
      <feGaussianBlur stdDeviation="2" in="SourceAlpha"/>
      <feOffset dx="0" dy="2" result="offset"/>
      <feComponentTransfer><feFuncA type="linear" slope="0.18"/></feComponentTransfer>
      <feMerge><feMergeNode/><feMergeNode in="SourceGraphic"/></feMerge>
    </filter>
    <marker id="arrow" viewBox="0 0 10 10" refX="9" refY="5" markerWidth="8" markerHeight="8" orient="auto">
      <path d="M0,0 L10,5 L0,10 z" fill="#3367d6"/>
    </marker>
    <symbol id="tab-icon" viewBox="0 0 32 32">
      <rect width="32" height="32" rx="4" fill="#3367d6"/>
      <rect x="6" y="7" width="20" height="6" fill="#ffffff"/>
      <rect x="13" y="7" width="6" height="18" fill="#ffffff"/>
    </symbol>
  </defs>

  <rect width="1440" height="720" fill="url(#bg)"/>

  <!-- Title -->
  <text x="720" y="46" text-anchor="middle" font-size="28" font-weight="700" fill="#202124">Tab Saver — UI workflow</text>
  <text x="720" y="72" text-anchor="middle" font-size="14" fill="#5f6368">Click the toolbar icon to open the popup. Save all tabs, search active tabs, click a match to switch or × to close.</text>

  <!-- Panel -->
  <g transform="translate(40,100)">
    <rect width="1360" height="580" rx="12" fill="#ffffff" stroke="#dadce0" stroke-width="1.2" filter="url(#shadow)"/>

    <!-- LEFT: trigger (icon click) -->
    <g transform="translate(40,40)">
      <text x="0" y="0" font-size="13" font-weight="700" fill="#3c4043">Trigger</text>
      <g transform="translate(0,16)">
        <rect width="220" height="64" rx="8" fill="#f8f9fa" stroke="#dadce0"/>
        <use href="#tab-icon" x="20" y="20" width="24" height="24"/>
        <!-- Badge inside icon -->
        <rect x="22" y="32" width="22" height="12" rx="2" fill="#3367d6"/>
        <text x="33" y="42" text-anchor="middle" font-size="9" font-weight="700" fill="#fff">189</text>
        <text x="60" y="38" font-size="12" fill="#3c4043">Left-click → opens popup</text>
        <!-- cursor -->
        <path d="M30 50 L40 70 L44 60 L54 60 Z" fill="#202124"/>
      </g>
      <text x="0" y="110" font-size="11" fill="#5f6368">Badge shows the tab count of</text>
      <text x="0" y="126" font-size="11" fill="#5f6368">your most recent saved collection.</text>

      <!-- Right-click (Load/Clear) -->
      <text x="0" y="170" font-size="13" font-weight="700" fill="#3c4043">Right-click menu</text>
      <g transform="translate(0,186)">
        <rect width="220" height="160" rx="8" fill="#fff" stroke="#dadce0"/>
        <text x="14" y="22" font-size="11" fill="#3c4043">Load tab collection ▸</text>
        <text x="206" y="22" text-anchor="end" font-size="12" fill="#5f6368">▸</text>
        <line x1="0" y1="32" x2="220" y2="32" stroke="#e8eaed"/>
        <text x="14" y="52" font-size="11" fill="#3c4043">Clear all saved tab collections (3)</text>
        <text x="14" y="84" font-size="10" fill="#9aa0a6">Submenu lists 3 most recent</text>
        <text x="14" y="98" font-size="10" fill="#9aa0a6">snapshots, each with its own</text>
        <text x="14" y="112" font-size="10" fill="#9aa0a6">Open / Delete pair. Open reopens</text>
        <text x="14" y="126" font-size="10" fill="#9aa0a6">URLs grouped by their original</text>
        <text x="14" y="140" font-size="10" fill="#9aa0a6">window.</text>
      </g>
    </g>

    <!-- Arrow trigger → popup -->
    <line x1="280" y1="80" x2="320" y2="80" stroke="#3367d6" stroke-width="2" marker-end="url(#arrow)"/>
    <text x="300" y="70" text-anchor="middle" font-size="11" fill="#3367d6" font-weight="600">opens</text>

    <!-- MIDDLE: popup mock -->
    <g transform="translate(330,40)">
      <text x="0" y="0" font-size="13" font-weight="700" fill="#3c4043">Popup (420 px)</text>
      <g transform="translate(0,16)">
        <rect width="420" height="500" rx="10" fill="#fff" stroke="#dadce0"/>

        <!-- Save button -->
        <rect x="12" y="12" width="396" height="36" rx="6" fill="#3367d6"/>
        <text x="210" y="34" text-anchor="middle" font-size="13" font-weight="700" fill="#fff">Save all tabs</text>

        <!-- Search input -->
        <rect x="12" y="58" width="296" height="32" rx="6" fill="#fafbfc" stroke="#dadce0"/>
        <circle cx="28" cy="74" r="5" fill="none" stroke="#5f6368" stroke-width="1.4"/>
        <line x1="32" y1="78" x2="36" y2="82" stroke="#5f6368" stroke-width="1.4"/>
        <text x="44" y="78" font-size="12" fill="#202124">[MCF Export]</text>
        <g transform="translate(294,74)" stroke="#5f6368" stroke-width="1.4" stroke-linecap="round">
          <line x1="-4" y1="-4" x2="4" y2="4"/>
          <line x1="4" y1="-4" x2="-4" y2="4"/>
        </g>

        <!-- Show all tabs button -->
        <rect x="316" y="58" width="92" height="32" rx="6" fill="#e8f0fe" stroke="#dadce0"/>
        <text x="362" y="78" text-anchor="middle" font-size="12" font-weight="600" fill="#3367d6">Show all tabs</text>

        <text x="396" y="108" text-anchor="end" font-size="12" fill="#5f6368">189 open tabs across 10 windows.</text>

        <!-- Group: Window 1 -->
        <rect x="12" y="120" width="396" height="148" rx="8" fill="#fff" stroke="#dadce0"/>
        <rect x="12" y="120" width="396" height="26" fill="#f8f9fa" stroke="#dadce0"/>
        <text x="22" y="137" font-size="12" font-weight="600" fill="#3c4043">Window 1</text>
        <text x="170" y="137" font-size="11" fill="#5f6368">2 matches</text>
        <text x="396" y="137" text-anchor="end" font-size="11" fill="#3367d6" font-weight="500">Focus</text>

        <!-- Row 1 -->
        <rect x="22" y="152" width="78" height="14" rx="2" fill="#fff3a3"/>
        <text x="22" y="163" font-size="12" fill="#202124"><tspan font-weight="600">[MCF Export]</tspan> Tasks</text>
        <text x="22" y="178" font-size="10" fill="#5f6368">https://issues.amazon.com/issues/SBWFT-17223</text>
        <text x="384" y="171" text-anchor="middle" font-size="16" font-weight="700" fill="#d93025">×</text>
        <line x1="22" y1="190" x2="398" y2="190" stroke="#eef0f3"/>

        <!-- Row 2 -->
        <rect x="22" y="200" width="78" height="14" rx="2" fill="#fff3a3"/>
        <text x="22" y="211" font-size="12" fill="#202124"><tspan font-weight="600">[MCF Export]</tspan> Gate intl order injection behind</text>
        <text x="22" y="226" font-size="12" fill="#202124">Weblab</text>
        <text x="22" y="242" font-size="10" fill="#5f6368">https://issues.amazon.com/issues/MERC-10357</text>
        <text x="384" y="227" text-anchor="middle" font-size="16" font-weight="700" fill="#d93025">×</text>

        <!-- Group: Window 2 -->
        <rect x="12" y="278" width="396" height="100" rx="8" fill="#fff" stroke="#dadce0"/>
        <rect x="12" y="278" width="396" height="26" fill="#f8f9fa" stroke="#dadce0"/>
        <text x="22" y="295" font-size="12" font-weight="600" fill="#3c4043">Window 2</text>
        <text x="170" y="295" font-size="11" fill="#5f6368">1 match</text>
        <text x="396" y="295" text-anchor="end" font-size="11" fill="#3367d6" font-weight="500">Focus</text>

        <rect x="22" y="310" width="78" height="14" rx="2" fill="#fff3a3"/>
        <text x="22" y="321" font-size="12" fill="#202124"><tspan font-weight="600">[MCF Export]</tspan> Tasks</text>
        <text x="22" y="336" font-size="10" fill="#5f6368">https://issues.amazon.com/issues/SBWFT-17223</text>
        <text x="384" y="329" text-anchor="middle" font-size="16" font-weight="700" fill="#d93025">×</text>

        <text x="210" y="408" text-anchor="middle" font-size="10" fill="#9aa0a6">Live results from chrome.tabs.query —</text>
        <text x="210" y="422" text-anchor="middle" font-size="10" fill="#9aa0a6">refreshes on tab create / close / URL change</text>
      </g>
    </g>

    <!-- RIGHT: action outcomes -->
    <g transform="translate(810,40)">
      <text x="0" y="0" font-size="13" font-weight="700" fill="#3c4043">What each control does</text>
      <g transform="translate(0,16)" font-size="12" fill="#3c4043">
        <rect width="510" height="22" fill="#f1f3f4"/>
        <text x="10" y="15" font-weight="600">Control</text>
        <text x="200" y="15" font-weight="600">Effect</text>

        <g transform="translate(0,22)">
          <rect width="510" height="44" fill="#fafbfc"/>
          <rect x="10" y="12" width="80" height="20" rx="3" fill="#3367d6"/>
          <text x="50" y="26" text-anchor="middle" font-size="11" font-weight="700" fill="#fff">Save all tabs</text>
          <text x="200" y="20">Sends {type:"save-tabs"} to service worker.</text>
          <text x="200" y="36">Dedups against most recent; flashes badge green.</text>
        </g>

        <g transform="translate(0,66)">
          <rect width="510" height="36" fill="#fff"/>
          <rect x="10" y="9" width="86" height="20" rx="3" fill="#e8f0fe" stroke="#dadce0"/>
          <text x="53" y="23" text-anchor="middle" font-size="10" font-weight="600" fill="#3367d6">Show all tabs</text>
          <text x="200" y="28">Lists every open tab, grouped by window — even with text in search.</text>
        </g>

        <g transform="translate(0,102)">
          <rect width="510" height="36" fill="#fafbfc"/>
          <text x="10" y="23" font-size="11" font-weight="500" fill="#3c4043">Click tab row</text>
          <text x="200" y="28">tabs.update(id, {active}) + windows.update(focused).</text>
        </g>

        <g transform="translate(0,138)">
          <rect width="510" height="36" fill="#fff"/>
          <text x="35" y="26" text-anchor="middle" font-size="16" font-weight="700" fill="#d93025">×</text>
          <text x="200" y="28">tabs.remove(id). The popup re-queries and updates.</text>
        </g>

        <g transform="translate(0,174)">
          <rect width="510" height="36" fill="#fafbfc"/>
          <text x="10" y="23" font-size="11" font-weight="500" fill="#3367d6">Focus</text>
          <text x="200" y="28">windows.update(windowId, {focused: true}).</text>
        </g>

        <g transform="translate(0,210)">
          <rect width="510" height="44" fill="#fff"/>
          <text x="10" y="20" font-weight="600">Search input</text>
          <text x="10" y="36" font-size="11" fill="#5f6368">(top of popup)</text>
          <text x="200" y="20">matchesQuery(): case-insensitive substring on title</text>
          <text x="200" y="36">or URL. Results sorted by title within each window.</text>
        </g>

        <g transform="translate(0,254)">
          <rect width="510" height="44" fill="#fafbfc"/>
          <text x="10" y="20" font-weight="600">Right-click</text>
          <text x="10" y="36" font-size="11" fill="#5f6368">(icon or page)</text>
          <text x="200" y="20">Load tab collection ▸ {savedAt} ▸ Open / Delete</text>
          <text x="200" y="36">+ Clear all saved tab collections (icon only).</text>
        </g>
      </g>

      <g transform="translate(0,346)">
        <text x="0" y="0" font-size="13" font-weight="700" fill="#3c4043">Notes</text>
        <g font-size="11" fill="#5f6368">
          <text x="0" y="22">• Save flashes the badge GREEN with the new count, then settles to BLUE for ~3s.</text>
          <text x="0" y="40">• Persistent BLUE badge always reflects recent[0].tabs.length; survives browser restart.</text>
          <text x="0" y="58">• Saved tab counts and window grouping persist across restarts via chrome.storage.local.</text>
        </g>
      </g>
    </g>
  </g>
</svg>
